<?xml version="1.0" standalone="no"?>
<!DOCTYPE svg PUBLIC "-//W3C//DTD SVG 20010904//EN"
 "http://www.w3.org/TR/2001/REC-SVG-20010904/DTD/svg10.dtd">
<svg version="1.0" xmlns="http://www.w3.org/2000/svg"
 width="1432.000000pt" height="1432.000000pt" viewBox="0 0 1432.000000 1432.000000"
 preserveAspectRatio="xMidYMid meet">
<metadata>
Created by potrace 1.11, written by Peter Selinger 2001-2013
</metadata>
<g transform="translate(0.000000,1432.000000) scale(0.100000,-0.100000)"
fill="#000000" stroke="none">
<path d="M700 13960 l0 -360 -350 0 c-343 0 -350 0 -350 -20 0 -20 7 -20 350
-20 l350 0 0 -360 0 -360 -350 0 c-343 0 -350 0 -350 -20 0 -20 7 -20 350 -20
l350 0 0 -360 0 -360 -350 0 c-343 0 -350 0 -350 -20 0 -20 7 -20 350 -20
l350 0 0 -350 0 -350 -350 0 c-343 0 -350 0 -350 -20 0 -20 7 -20 350 -20
l350 0 0 -360 0 -360 -350 0 c-343 0 -350 0 -350 -20 0 -20 7 -20 350 -20
l350 0 0 -360 0 -360 -350 0 c-343 0 -350 0 -350 -20 0 -20 7 -20 350 -20
l350 0 0 -360 0 -360 -350 0 c-343 0 -350 0 -350 -20 0 -20 7 -20 350 -20
l350 0 0 -360 0 -360 -350 0 c-343 0 -350 0 -350 -20 0 -20 7 -20 350 -20
l350 0 0 -360 0 -360 -350 0 c-343 0 -350 0 -350 -20 0 -20 7 -20 350 -20
l350 0 0 -350 0 -350 -350 0 c-343 0 -350 0 -350 -20 0 -20 7 -20 350 -20
l350 0 0 -360 0 -360 -350 0 c-343 0 -350 0 -350 -20 0 -20 7 -20 350 -20
l350 0 0 -360 0 -360 -350 0 c-343 0 -350 0 -350 -20 0 -20 7 -20 350 -20
l350 0 0 -360 0 -360 -350 0 c-343 0 -350 0 -350 -20 0 -20 7 -20 350 -20
l350 0 0 -360 0 -360 -350 0 c-343 0 -350 0 -350 -20 0 -20 7 -20 350 -20
l350 0 0 -360 0 -360 -350 0 c-343 0 -350 0 -350 -20 0 -20 7 -20 350 -20
l350 0 0 -360 0 -360 -350 0 c-343 0 -350 0 -350 -20 0 -20 7 -20 350 -20
l350 0 0 -350 0 -350 -350 0 c-343 0 -350 0 -350 -20 0 -20 7 -20 350 -20
l350 0 0 -360 0 -360 -350 0 c-343 0 -350 0 -350 -20 0 -20 7 -20 350 -20
l350 0 0 -350 c0 -343 0 -350 20 -350 20 0 20 7 20 350 l0 350 360 0 360 0 0
-350 c0 -343 0 -350 20 -350 20 0 20 7 20 350 l0 350 350 0 350 0 0 -350 c0
-343 0 -350 20 -350 20 0 20 7 20 350 l0 350 360 0 360 0 0 -350 c0 -343 0
-350 20 -350 20 0 20 7 20 350 l0 350 360 0 360 0 0 -350 c0 -343 0 -350 20
-350 20 0 20 7 20 350 l0 350 360 0 360 0 0 -350 c0 -343 0 -350 20 -350 20 0
20 7 20 350 l0 350 360 0 360 0 0 -350 c0 -343 0 -350 20 -350 20 0 20 7 20
350 l0 350 360 0 360 0 0 -350 c0 -343 0 -350 20 -350 20 0 20 7 20 350 l0
350 360 0 360 0 0 -350 c0 -343 0 -350 20 -350 20 0 20 7 20 350 l0 350 350 0
350 0 0 -350 c0 -343 0 -350 20 -350 20 0 20 7 20 350 l0 350 360 0 360 0 0
-350 c0 -343 0 -350 20 -350 20 0 20 7 20 350 l0 350 360 0 360 0 0 -350 c0
-343 0 -350 20 -350 20 0 20 7 20 350 l0 350 360 0 360 0 0 -350 c0 -343 0
-350 20 -350 20 0 20 7 20 350 l0 350 360 0 360 0 0 -350 c0 -343 0 -350 20
-350 20 0 20 7 20 350 l0 350 360 0 360 0 0 -350 c0 -343 0 -350 20 -350 20 0
20 7 20 350 l0 350 350 0 350 0 0 -350 c0 -343 0 -350 20 -350 20 0 20 7 20
350 l0 350 360 0 360 0 0 -350 c0 -343 0 -350 20 -350 20 0 20 7 20 350 l0
350 360 0 360 0 0 -350 c0 -343 0 -350 20 -350 20 0 20 7 20 350 l0 350 360 0
c353 0 360 0 360 20 0 20 -7 20 -360 20 l-360 0 0 360 0 360 360 0 c353 0 360
0 360 20 0 20 -7 20 -360 20 l-360 0 0 350 0 350 360 0 c353 0 360 0 360 20 0
20 -7 20 -360 20 l-360 0 0 360 0 360 360 0 c353 0 360 0 360 20 0 20 -7 20
-360 20 l-360 0 0 360 0 360 360 0 c353 0 360 0 360 20 0 20 -7 20 -360 20
l-360 0 0 360 0 360 360 0 c353 0 360 0 360 20 0 20 -7 20 -360 20 l-360 0 0
360 0 360 360 0 c353 0 360 0 360 20 0 20 -7 20 -360 20 l-360 0 0 360 0 360
360 0 c353 0 360 0 360 20 0 20 -7 20 -360 20 l-360 0 0 360 0 360 360 0 c353
0 360 0 360 20 0 20 -7 20 -360 20 l-360 0 0 350 0 350 360 0 c353 0 360 0
360 20 0 20 -7 20 -360 20 l-360 0 0 360 0 360 360 0 c353 0 360 0 360 20 0
20 -7 20 -360 20 l-360 0 0 360 0 360 360 0 c353 0 360 0 360 20 0 20 -7 20
-360 20 l-360 0 0 360 0 360 360 0 c353 0 360 0 360 20 0 20 -7 20 -360 20
l-360 0 0 360 0 360 360 0 c353 0 360 0 360 20 0 20 -7 20 -360 20 l-360 0 0
360 0 360 360 0 c353 0 360 0 360 20 0 20 -7 20 -360 20 l-360 0 0 350 0 350
360 0 c353 0 360 0 360 20 0 20 -7 20 -360 20 l-360 0 0 360 0 360 360 0 c353
0 360 0 360 20 0 20 -7 20 -360 20 l-360 0 0 360 0 360 360 0 c353 0 360 0
360 20 0 20 -7 20 -360 20 l-360 0 0 360 c0 353 0 360 -20 360 -20 0 -20 -7
-20 -360 l0 -360 -360 0 -360 0 0 360 c0 353 0 360 -20 360 -20 0 -20 -7 -20
-360 l0 -360 -360 0 -360 0 0 360 c0 353 0 360 -20 360 -20 0 -20 -7 -20 -360
l0 -360 -350 0 -350 0 0 360 c0 353 0 360 -20 360 -20 0 -20 -7 -20 -360 l0
-360 -360 0 -360 0 0 360 c0 353 0 360 -20 360 -20 0 -20 -7 -20 -360 l0 -360
-360 0 -360 0 0 360 c0 353 0 360 -20 360 -20 0 -20 -7 -20 -360 l0 -360 -360
0 -360 0 0 360 c0 353 0 360 -20 360 -20 0 -20 -7 -20 -360 l0 -360 -360 0
-360 0 0 360 c0 353 0 360 -20 360 -20 0 -20 -7 -20 -360 l0 -360 -360 0 -360
0 0 360 c0 353 0 360 -20 360 -20 0 -20 -7 -20 -360 l0 -360 -350 0 -350 0 0
360 c0 353 0 360 -20 360 -20 0 -20 -7 -20 -360 l0 -360 -360 0 -360 0 0 360
c0 353 0 360 -20 360 -20 0 -20 -7 -20 -360 l0 -360 -360 0 -360 0 0 360 c0
353 0 360 -20 360 -20 0 -20 -7 -20 -360 l0 -360 -360 0 -360 0 0 360 c0 353
0 360 -20 360 -20 0 -20 -7 -20 -360 l0 -360 -360 0 -360 0 0 360 c0 353 0
360 -20 360 -20 0 -20 -7 -20 -360 l0 -360 -360 0 -360 0 0 360 c0 353 0 360
-20 360 -20 0 -20 -7 -20 -360 l0 -360 -360 0 -360 0 0 360 c0 353 0 360 -20
360 -20 0 -20 -7 -20 -360 l0 -360 -350 0 -350 0 0 360 c0 353 0 360 -20 360
-20 0 -20 -7 -20 -360 l0 -360 -360 0 -360 0 0 360 c0 353 0 360 -20 360 -20
0 -20 -7 -20 -360z m760 -760 l0 -360 -360 0 -360 0 0 360 0 360 360 0 360 0
0 -360z m740 0 l0 -360 -350 0 -350 0 0 360 0 360 350 0 350 0 0 -360z m760 0
l0 -360 -360 0 -360 0 0 360 0 360 360 0 360 0 0 -360z m760 0 l0 -360 -360 0
-360 0 0 360 0 360 360 0 360 0 0 -360z m760 0 l0 -360 -360 0 -360 0 0 360 0
360 360 0 360 0 0 -360z m760 0 l0 -360 -360 0 -360 0 0 360 0 360 360 0 360
0 0 -360z m760 0 l0 -360 -360 0 -360 0 0 360 0 360 360 0 360 0 0 -360z m760
0 l0 -360 -360 0 -360 0 0 360 0 360 360 0 360 0 0 -360z m740 0 l0 -360 -350
0 -350 0 0 360 0 360 350 0 350 0 0 -360z m760 0 l0 -360 -360 0 -360 0 0 360
0 360 360 0 360 0 0 -360z m760 0 l0 -360 -360 0 -360 0 0 360 0 360 360 0
360 0 0 -360z m760 0 l0 -360 -360 0 -360 0 0 360 0 360 360 0 360 0 0 -360z
m760 0 l0 -360 -360 0 -360 0 0 360 0 360 360 0 360 0 0 -360z m760 0 l0 -360
-360 0 -360 0 0 360 0 360 360 0 360 0 0 -360z m740 0 l0 -360 -350 0 -350 0
0 360 0 360 350 0 350 0 0 -360z m760 0 l0 -360 -360 0 -360 0 0 360 0 360
360 0 360 0 0 -360z m760 0 l0 -360 -360 0 -360 0 0 360 0 360 360 0 360 0 0
-360z m-12100 -760 l0 -360 -360 0 -360 0 0 360 0 360 360 0 360 0 0 -360z
m740 0 l0 -360 -350 0 -350 0 0 360 0 360 350 0 350 0 0 -360z m760 0 l0 -360
-360 0 -360 0 0 360 0 360 360 0 360 0 0 -360z m760 0 l0 -360 -360 0 -360 0
0 360 0 360 360 0 360 0 0 -360z m760 0 l0 -360 -360 0 -360 0 0 360 0 360
360 0 360 0 0 -360z m760 0 l0 -360 -360 0 -360 0 0 360 0 360 360 0 360 0 0
-360z m760 0 l0 -360 -360 0 -360 0 0 360 0 360 360 0 360 0 0 -360z m760 0
l0 -360 -360 0 -360 0 0 360 0 360 360 0 360 0 0 -360z m740 0 l0 -360 -350 0
-350 0 0 360 0 360 350 0 350 0 0 -360z m760 0 l0 -360 -360 0 -360 0 0 360 0
360 360 0 360 0 0 -360z m760 0 l0 -360 -360 0 -360 0 0 360 0 360 360 0 360
0 0 -360z m760 0 l0 -360 -360 0 -360 0 0 360 0 360 360 0 360 0 0 -360z m760
0 l0 -360 -360 0 -360 0 0 360 0 360 360 0 360 0 0 -360z m760 0 l0 -360 -360
0 -360 0 0 360 0 360 360 0 360 0 0 -360z m740 0 l0 -360 -350 0 -350 0 0 360
0 360 350 0 350 0 0 -360z m760 0 l0 -360 -360 0 -360 0 0 360 0 360 360 0
360 0 0 -360z m760 0 l0 -360 -360 0 -360 0 0 360 0 360 360 0 360 0 0 -360z
m-12100 -750 l0 -350 -360 0 -360 0 0 350 0 350 360 0 360 0 0 -350z m740 0
l0 -350 -350 0 -350 0 0 350 0 350 350 0 350 0 0 -350z m760 0 l0 -350 -360 0
-360 0 0 350 0 350 360 0 360 0 0 -350z m760 0 l0 -350 -360 0 -360 0 0 350 0
350 360 0 360 0 0 -350z m760 0 l0 -350 -360 0 -360 0 0 350 0 350 360 0 360
0 0 -350z m760 0 l0 -350 -360 0 -360 0 0 350 0 350 360 0 360 0 0 -350z m235
333 c-85 -45 -145 -116 -176 -206 l-18 -52 -1 138 0 137 113 0 c109 -1 111 -1
82 -17z m525 -120 l-1 -138 -18 52 c-31 90 -91 161 -176 206 -29 16 -27 16 83
17 l112 0 0 -137z m760 -213 l0 -350 -360 0 -360 0 0 350 0 350 360 0 360 0 0
-350z m740 0 l0 -350 -350 0 -350 0 0 350 0 350 350 0 350 0 0 -350z m760 0
l0 -350 -360 0 -360 0 0 350 0 350 360 0 360 0 0 -350z m760 0 l0 -350 -360 0
-360 0 0 350 0 350 360 0 360 0 0 -350z m760 0 l0 -350 -360 0 -360 0 0 350 0
350 360 0 360 0 0 -350z m760 0 l0 -350 -360 0 -360 0 0 350 0 350 360 0 360
0 0 -350z m760 0 l0 -350 -360 0 -360 0 0 350 0 350 360 0 360 0 0 -350z m740
0 l0 -350 -350 0 -350 0 0 350 0 350 350 0 350 0 0 -350z m760 0 l0 -350 -360
0 -360 0 0 350 0 350 360 0 360 0 0 -350z m760 0 l0 -350 -360 0 -360 0 0 350
0 350 360 0 360 0 0 -350z m-8215 -200 c44 -64 110 -111 190 -136 36 -11 26
-13 -107 -13 l-148 -1 0 148 1 147 18 -52 c10 -29 30 -70 46 -93z m655 -5 l0
-145 -147 0 -148 1 52 18 c97 33 171 100 213 192 11 24 20 52 20 62 0 9 2 17
5 17 3 0 5 -65 5 -145z m-4540 -545 l0 -360 -360 0 -360 0 0 360 0 360 360 0
360 0 0 -360z m740 0 l0 -360 -350 0 -350 0 0 360 0 360 350 0 350 0 0 -360z
m760 0 l0 -360 -360 0 -360 0 0 360 0 360 360 0 360 0 0 -360z m760 0 l0 -360
-360 0 -360 0 0 360 0 360 360 0 360 0 0 -360z m760 0 l0 -360 -360 0 -360 0
0 360 0 360 360 0 360 0 0 -360z m760 0 l0 -360 -360 0 -360 0 0 360 0 360
360 0 360 0 0 -360z m760 0 l0 -360 -360 0 -360 0 0 360 0 360 360 0 360 0 0
-360z m760 0 l0 -360 -360 0 -360 0 0 360 0 360 360 0 360 0 0 -360z m740 0
l0 -360 -349 0 -348 0 -5 180 c-3 99 -3 261 0 360 l5 180 348 0 349 0 0 -360z
m760 0 l0 -360 -360 0 -360 0 0 360 0 360 360 0 360 0 0 -360z m760 0 l0 -360
-360 0 -360 0 0 360 0 360 360 0 360 0 0 -360z m295 346 c-115 -36 -197 -116
-236 -229 l-18 -52 -1 148 0 147 148 -1 c133 0 143 -2 107 -13z m464 -133 c0
-134 -2 -144 -13 -108 -36 115 -116 197 -229 236 l-52 18 148 1 147 0 -1 -147z
m761 -213 l0 -360 -360 0 -360 0 0 360 0 360 360 0 360 0 0 -360z m760 0 l0
-360 -360 0 -360 0 0 360 0 360 360 0 360 0 0 -360z m745 223 c7 -174 7 -272
0 -445 l-7 -138 -349 0 -349 0 0 360 0 360 349 0 349 0 7 -137z m755 -223 l0
-360 -360 0 -360 0 0 360 0 360 360 0 360 0 0 -360z m760 0 l0 -360 -360 0
-360 0 0 360 0 360 360 0 360 0 0 -360z m-4435 -210 c44 -64 110 -111 190
-136 36 -11 26 -13 -107 -13 l-148 -1 0 148 1 147 18 -52 c10 -29 30 -70 46
-93z m655 -5 l0 -145 -147 0 -148 1 52 18 c97 33 171 100 213 192 11 24 20 52
20 62 0 9 2 17 5 17 3 0 5 -65 5 -145z m-8320 -545 l0 -360 -360 0 -360 0 0
360 0 360 360 0 360 0 0 -360z m740 0 l0 -360 -350 0 -350 0 0 360 0 360 350
0 350 0 0 -360z m760 0 l0 -360 -360 0 -360 0 0 360 0 360 360 0 360 0 0 -360z
m760 0 l0 -360 -360 0 -360 0 0 360 0 360 360 0 360 0 0 -360z m760 0 l0 -360
-360 0 -360 0 0 360 0 360 360 0 360 0 0 -360z m760 0 l0 -360 -360 0 -360 0
0 360 0 360 360 0 360 0 0 -360z m760 0 l0 -360 -360 0 -360 0 0 360 0 360
360 0 360 0 0 -360z m760 0 l0 -360 -360 0 -360 0 0 360 0 360 360 0 360 0 0
-360z m740 0 l0 -360 -349 0 -348 0 -5 180 c-3 99 -3 261 0 360 l5 180 348 0
349 0 0 -360z m295 346 c-115 -36 -197 -116 -236 -229 l-18 -52 -1 148 0 147
148 -1 c133 0 143 -2 107 -13z m464 -133 c0 -134 -2 -144 -13 -108 -36 115
-116 197 -229 236 l-52 18 148 1 147 0 -1 -147z m761 -213 l0 -360 -360 0
-360 0 0 360 0 360 360 0 360 0 0 -360z m760 0 l0 -360 -360 0 -360 0 0 360 0
360 360 0 360 0 0 -360z m760 0 l0 -360 -360 0 -360 0 0 360 0 360 360 0 360
0 0 -360z m295 346 c-115 -36 -197 -116 -236 -229 l-18 -52 -1 148 0 147 148
-1 c133 0 143 -2 107 -13z m464 -133 c0 -134 -2 -144 -13 -108 -36 115 -116
197 -229 236 l-52 18 148 1 147 0 -1 -147z m741 -213 l0 -360 -350 0 -350 0 0
360 0 360 350 0 350 0 0 -360z m760 0 l0 -360 -360 0 -360 0 0 360 0 360 360
0 360 0 0 -360z m760 0 l0 -360 -360 0 -360 0 0 360 0 360 360 0 360 0 0 -360z
m-5955 -210 c44 -64 110 -111 190 -136 36 -11 26 -13 -107 -13 l-148 -1 0 148
1 147 18 -52 c10 -29 30 -70 46 -93z m655 -5 l0 -145 -147 0 -148 1 52 18 c97
33 171 100 213 192 11 24 20 52 20 62 0 9 2 17 5 17 3 0 5 -65 5 -145z m2385
5 c44 -64 110 -111 190 -136 36 -11 26 -13 -107 -13 l-148 -1 0 148 1 147 18
-52 c10 -29 30 -70 46 -93z m655 -5 l0 -145 -147 0 -148 1 52 18 c97 33 171
100 213 192 11 24 20 52 20 62 0 9 2 17 5 17 3 0 5 -65 5 -145z m-9840 -545
l0 -360 -360 0 -360 0 0 360 0 360 360 0 360 0 0 -360z m740 0 l0 -360 -350 0
-350 0 0 360 0 360 350 0 350 0 0 -360z m760 0 l0 -360 -360 0 -360 0 0 360 0
360 360 0 360 0 0 -360z m760 0 l0 -360 -360 0 -360 0 0 360 0 360 360 0 360
0 0 -360z m760 0 l0 -360 -360 0 -360 0 0 360 0 360 360 0 360 0 0 -360z m760
0 l0 -360 -360 0 -360 0 0 360 0 360 360 0 360 0 0 -360z m760 0 l0 -360 -360
0 -360 0 0 360 0 360 360 0 360 0 0 -360z m760 0 l0 -360 -360 0 -360 0 0 360
0 360 360 0 360 0 0 -360z m740 0 l0 -360 -350 0 -350 0 0 127 0 127 25 -51
c31 -62 109 -137 173 -166 38 -18 66 -22 142 -22 76 0 104 4 142 22 66 30 143
105 175 172 25 49 28 68 28 151 0 83 -3 102 -28 151 -32 67 -109 142 -175 172
-38 18 -66 22 -142 22 -76 0 -104 -4 -142 -22 -64 -29 -142 -104 -173 -166
l-25 -51 0 127 0 127 350 0 350 0 0 -360z m760 0 l0 -360 -360 0 -360 0 0 360
0 360 360 0 360 0 0 -360z m295 346 c-115 -36 -197 -116 -236 -229 l-18 -52
-1 148 0 147 148 -1 c133 0 143 -2 107 -13z m464 -133 c0 -134 -2 -144 -13
-108 -36 115 -116 197 -229 236 l-52 18 148 1 147 0 -1 -147z m296 133 c-115
-36 -197 -116 -236 -229 l-18 -52 -1 148 0 147 148 -1 c133 0 143 -2 107 -13z
m464 -133 c0 -134 -2 -144 -13 -108 -36 115 -116 197 -229 236 l-52 18 148 1
147 0 -1 -147z m296 133 c-115 -36 -197 -116 -236 -229 l-18 -52 -1 148 0 147
148 -1 c133 0 143 -2 107 -13z m464 -133 c0 -134 -2 -144 -13 -108 -36 115
-116 197 -229 236 l-52 18 148 1 147 0 -1 -147z m761 -213 l0 -360 -360 0
-360 0 0 360 0 360 360 0 360 0 0 -360z m740 0 l0 -360 -350 0 -350 0 0 360 0
360 350 0 350 0 0 -360z m760 0 l0 -360 -360 0 -360 0 0 360 0 360 360 0 360
0 0 -360z m295 346 c-115 -36 -197 -116 -236 -229 l-18 -52 -1 148 0 147 148
-1 c133 0 143 -2 107 -13z m464 -133 c0 -134 -2 -144 -13 -108 -36 115 -116
197 -229 236 l-52 18 148 1 147 0 -1 -147z m-5194 -423 c44 -64 110 -111 190
-136 36 -11 26 -13 -107 -13 l-148 -1 0 148 1 147 18 -52 c10 -29 30 -70 46
-93z m655 -5 l0 -145 -147 0 -148 1 52 18 c97 33 171 100 213 192 11 24 20 52
20 62 0 9 2 17 5 17 3 0 5 -65 5 -145z m105 5 c44 -64 110 -111 190 -136 36
-11 26 -13 -107 -13 l-148 -1 0 148 1 147 18 -52 c10 -29 30 -70 46 -93z m655
-5 l0 -145 -147 0 -148 1 52 18 c97 33 171 100 213 192 11 24 20 52 20 62 0 9
2 17 5 17 3 0 5 -65 5 -145z m105 5 c44 -64 110 -111 190 -136 36 -11 26 -13
-107 -13 l-148 -1 0 148 1 147 18 -52 c10 -29 30 -70 46 -93z m655 -5 l0 -145
-147 0 -148 1 52 18 c97 33 171 100 213 192 11 24 20 52 20 62 0 9 2 17 5 17
3 0 5 -65 5 -145z m2365 5 c44 -64 110 -111 190 -136 36 -11 26 -13 -107 -13
l-148 -1 0 148 1 147 18 -52 c10 -29 30 -70 46 -93z m655 -5 l0 -145 -147 0
-148 1 52 18 c97 33 171 100 213 192 11 24 20 52 20 62 0 9 2 17 5 17 3 0 5
-65 5 -145z m-12100 -545 l0 -360 -360 0 -360 0 0 360 0 360 360 0 360 0 0
-360z m740 0 l0 -360 -350 0 -350 0 0 360 0 360 350 0 350 0 0 -360z m760 0
l0 -360 -360 0 -360 0 0 360 0 360 360 0 360 0 0 -360z m760 0 l0 -360 -360 0
-360 0 0 360 0 360 360 0 360 0 0 -360z m295 346 c-115 -36 -197 -116 -236
-229 l-18 -52 -1 148 0 147 148 -1 c133 0 143 -2 107 -13z m464 -133 c0 -134
-2 -144 -13 -108 -36 115 -116 197 -229 236 l-52 18 148 1 147 0 -1 -147z
m296 133 c-115 -36 -197 -116 -236 -229 l-18 -52 -1 148 0 147 148 -1 c133 0
143 -2 107 -13z m464 -133 c0 -134 -2 -144 -13 -108 -36 115 -116 197 -229
236 l-52 18 148 1 147 0 -1 -147z m296 133 c-115 -36 -197 -116 -236 -229
l-18 -52 -1 148 0 147 148 -1 c133 0 143 -2 107 -13z m464 -133 c0 -134 -2
-144 -13 -108 -36 115 -116 197 -229 236 l-52 18 148 1 147 0 -1 -147z m761
-213 l0 -360 -360 0 -360 0 0 360 0 360 360 0 360 0 0 -360z m740 0 l0 -360
-349 0 -348 0 -5 180 c-3 99 -3 261 0 360 l5 180 348 0 349 0 0 -360z m760 0
l0 -360 -360 0 -360 0 0 360 0 360 360 0 360 0 0 -360z m760 0 l0 -360 -360 0
-360 0 0 360 0 360 360 0 360 0 0 -360z m295 346 c-115 -36 -197 -116 -236
-229 l-18 -52 -1 148 0 147 148 -1 c133 0 143 -2 107 -13z m464 -133 c0 -134
-2 -144 -13 -108 -36 115 -116 197 -229 236 l-52 18 148 1 147 0 -1 -147z
m296 133 c-115 -36 -197 -116 -236 -229 l-18 -52 -1 148 0 147 148 -1 c133 0
143 -2 107 -13z m464 -133 c0 -134 -2 -144 -13 -108 -36 115 -116 197 -229
236 l-52 18 148 1 147 0 -1 -147z m761 -213 l0 -360 -360 0 -360 0 0 360 0
360 360 0 360 0 0 -360z m740 0 l0 -360 -350 0 -350 0 0 360 0 360 350 0 350
0 0 -360z m760 0 l0 -360 -360 0 -360 0 0 360 0 360 360 0 360 0 0 -360z m295
346 c-115 -36 -197 -116 -236 -229 l-18 -52 -1 148 0 147 148 -1 c133 0 143
-2 107 -13z m464 -133 c0 -134 -2 -144 -13 -108 -36 115 -116 197 -229 236
l-52 18 148 1 147 0 -1 -147z m-9734 -423 c44 -64 110 -111 190 -136 36 -11
26 -13 -107 -13 l-148 -1 0 148 1 147 18 -52 c10 -29 30 -70 46 -93z m655 -5
l0 -145 -147 0 -148 1 52 18 c97 33 171 100 213 192 11 24 20 52 20 62 0 9 2
17 5 17 3 0 5 -65 5 -145z m105 5 c44 -64 110 -111 190 -136 36 -11 26 -13
-107 -13 l-148 -1 0 148 1 147 18 -52 c10 -29 30 -70 46 -93z m655 -5 l0 -145
-147 0 -148 1 52 18 c97 33 171 100 213 192 11 24 20 52 20 62 0 9 2 17 5 17
3 0 5 -65 5 -145z m105 5 c44 -64 110 -111 190 -136 36 -11 26 -13 -107 -13
l-148 -1 0 148 1 147 18 -52 c10 -29 30 -70 46 -93z m655 -5 l0 -145 -147 0
-148 1 52 18 c97 33 171 100 213 192 11 24 20 52 20 62 0 9 2 17 5 17 3 0 5
-65 5 -145z m3125 5 c44 -64 110 -111 190 -136 36 -11 26 -13 -107 -13 l-148
-1 0 148 1 147 18 -52 c10 -29 30 -70 46 -93z m655 -5 l0 -145 -147 0 -148 1
52 18 c97 33 171 100 213 192 11 24 20 52 20 62 0 9 2 17 5 17 3 0 5 -65 5
-145z m105 5 c44 -64 110 -111 190 -136 36 -11 26 -13 -107 -13 l-148 -1 0
148 1 147 18 -52 c10 -29 30 -70 46 -93z m655 -5 l0 -145 -147 0 -148 1 52 18
c97 33 171 100 213 192 11 24 20 52 20 62 0 9 2 17 5 17 3 0 5 -65 5 -145z
m2365 5 c44 -64 110 -111 190 -136 36 -11 26 -13 -107 -13 l-148 -1 0 148 1
147 18 -52 c10 -29 30 -70 46 -93z m655 -5 l0 -145 -147 0 -148 1 52 18 c97
33 171 100 213 192 11 24 20 52 20 62 0 9 2 17 5 17 3 0 5 -65 5 -145z
m-12100 -545 l0 -360 -360 0 -360 0 0 360 0 360 360 0 360 0 0 -360z m740 0
l0 -360 -350 0 -350 0 0 360 0 360 350 0 350 0 0 -360z m760 0 l0 -360 -360 0
-360 0 0 360 0 360 360 0 360 0 0 -360z m760 0 l0 -360 -360 0 -360 0 0 360 0
360 360 0 360 0 0 -360z m760 0 l0 -360 -360 0 -360 0 0 360 0 360 360 0 360
0 0 -360z m295 346 c-115 -36 -197 -116 -236 -229 l-18 -52 -1 148 0 147 148
-1 c133 0 143 -2 107 -13z m464 -133 c0 -134 -2 -144 -13 -108 -36 115 -116
197 -229 236 l-52 18 148 1 147 0 -1 -147z m761 -213 l0 -360 -360 0 -360 0 0
360 0 360 360 0 360 0 0 -360z m760 0 l0 -360 -360 0 -360 0 0 360 0 360 360
0 360 0 0 -360z m740 0 l0 -360 -349 0 -348 0 -5 180 c-3 99 -3 261 0 360 l5
180 348 0 349 0 0 -360z m760 0 l0 -360 -360 0 -360 0 0 360 0 360 360 0 360
0 0 -360z m295 346 c-115 -36 -197 -116 -236 -229 l-18 -52 -1 148 0 147 148
-1 c133 0 143 -2 107 -13z m464 -133 c0 -134 -2 -144 -13 -108 -36 115 -116
197 -229 236 l-52 18 148 1 147 0 -1 -147z m296 133 c-115 -36 -197 -116 -236
-229 l-18 -52 -1 148 0 147 148 -1 c133 0 143 -2 107 -13z m464 -133 c0 -134
-2 -144 -13 -108 -36 115 -116 197 -229 236 l-52 18 148 1 147 0 -1 -147z
m296 133 c-115 -36 -197 -116 -236 -229 l-18 -52 -1 148 0 147 148 -1 c133 0
143 -2 107 -13z m464 -133 c0 -134 -2 -144 -13 -108 -36 115 -116 197 -229
236 l-52 18 148 1 147 0 -1 -147z m296 133 c-115 -36 -197 -116 -236 -229
l-18 -52 -1 148 0 147 148 -1 c133 0 143 -2 107 -13z m464 -133 c0 -134 -2
-144 -13 -108 -36 115 -116 197 -229 236 l-52 18 148 1 147 0 -1 -147z m746
10 c7 -174 7 -272 0 -445 l-7 -138 -349 0 -349 0 0 360 0 360 349 0 349 0 7
-137z m755 -223 l0 -360 -360 0 -360 0 0 360 0 360 360 0 360 0 0 -360z m760
0 l0 -360 -360 0 -360 0 0 360 0 360 360 0 360 0 0 -360z m-8975 -210 c44 -64
110 -111 190 -136 36 -11 26 -13 -107 -13 l-148 -1 0 148 1 147 18 -52 c10
-29 30 -70 46 -93z m655 -5 l0 -145 -147 0 -148 1 52 18 c97 33 171 100 213
192 11 24 20 52 20 62 0 9 2 17 5 17 3 0 5 -65 5 -145z m3125 5 c44 -64 110
-111 190 -136 36 -11 26 -13 -107 -13 l-148 -1 0 148 1 147 18 -52 c10 -29 30
-70 46 -93z m655 -5 l0 -145 -147 0 -148 1 52 18 c97 33 171 100 213 192 11
24 20 52 20 62 0 9 2 17 5 17 3 0 5 -65 5 -145z m105 5 c44 -64 110 -111 190
-136 36 -11 26 -13 -107 -13 l-148 -1 0 148 1 147 18 -52 c10 -29 30 -70 46
-93z m655 -5 l0 -145 -147 0 -148 1 52 18 c97 33 171 100 213 192 11 24 20 52
20 62 0 9 2 17 5 17 3 0 5 -65 5 -145z m105 5 c44 -64 110 -111 190 -136 36
-11 26 -13 -107 -13 l-148 -1 0 148 1 147 18 -52 c10 -29 30 -70 46 -93z m655
-5 l0 -145 -147 0 -148 1 52 18 c97 33 171 100 213 192 11 24 20 52 20 62 0 9
2 17 5 17 3 0 5 -65 5 -145z m105 5 c44 -64 110 -111 190 -136 36 -11 26 -13
-107 -13 l-148 -1 0 148 1 147 18 -52 c10 -29 30 -70 46 -93z m655 -5 l0 -145
-147 0 -148 1 52 18 c97 33 171 100 213 192 11 24 20 52 20 62 0 9 2 17 5 17
3 0 5 -65 5 -145z m-9840 -535 l0 -350 -360 0 -360 0 0 350 0 350 360 0 360 0
0 -350z m740 0 l0 -350 -350 0 -350 0 0 350 0 350 350 0 350 0 0 -350z m760 0
l0 -350 -360 0 -360 0 0 350 0 350 360 0 360 0 0 -350z m760 0 l0 -350 -360 0
-360 0 0 350 0 350 360 0 360 0 0 -350z m295 336 c-115 -36 -197 -116 -236
-229 l-18 -52 -1 148 0 147 148 -1 c133 0 143 -2 107 -13z m464 -133 c0 -134
-2 -144 -13 -108 -36 115 -116 197 -229 236 l-52 18 148 1 147 0 -1 -147z
m761 -202 l0 -349 -137 -7 c-76 -3 -176 -6 -223 -6 -47 0 -147 3 -222 6 l-138
7 0 349 0 349 360 0 360 0 0 -349z m295 335 c-115 -36 -197 -116 -236 -229
l-18 -52 -1 148 0 147 148 -1 c133 0 143 -2 107 -13z m464 -133 c0 -134 -2
-144 -13 -108 -36 115 -116 197 -229 236 l-52 18 148 1 147 0 -1 -147z m761
-202 l0 -349 -137 -7 c-76 -3 -176 -6 -223 -6 -47 0 -147 3 -222 6 l-138 7 0
349 0 349 360 0 360 0 0 -349z m740 -1 l0 -350 -127 0 -127 0 51 25 c62 31
137 109 166 173 18 38 22 66 22 142 0 84 -3 102 -28 151 -32 67 -109 142 -175
172 -38 18 -66 22 -142 22 -76 0 -104 -4 -142 -22 -64 -29 -142 -104 -173
-166 l-25 -51 0 127 0 127 350 0 350 0 0 -350z m760 1 l0 -349 -137 -7 c-76
-3 -176 -6 -223 -6 -47 0 -147 3 -222 6 l-138 7 0 349 0 349 360 0 360 0 0
-349z m295 335 c-115 -36 -197 -116 -236 -229 l-18 -52 -1 148 0 147 148 -1
c133 0 143 -2 107 -13z m464 -133 c0 -134 -2 -144 -13 -108 -36 115 -116 197
-229 236 l-52 18 148 1 147 0 -1 -147z m296 133 c-115 -36 -197 -116 -236
-229 l-18 -52 -1 148 0 147 148 -1 c133 0 143 -2 107 -13z m464 -133 c0 -134
-2 -144 -13 -108 -36 115 -116 197 -229 236 l-52 18 148 1 147 0 -1 -147z
m296 133 c-115 -36 -197 -116 -236 -229 l-18 -52 -1 148 0 147 148 -1 c133 0
143 -2 107 -13z m464 -133 c0 -134 -2 -144 -13 -108 -36 115 -116 197 -229
236 l-52 18 148 1 147 0 -1 -147z m761 -202 l0 -349 -137 -7 c-76 -3 -176 -6
-223 -6 -47 0 -147 3 -222 6 l-138 7 0 349 0 349 360 0 360 0 0 -349z m295
335 c-115 -36 -197 -116 -236 -229 l-18 -52 -1 148 0 147 148 -1 c133 0 143
-2 107 -13z m445 -98 c-1 -110 -1 -112 -17 -83 -45 85 -116 145 -206 176 l-52
18 138 1 137 0 0 -112z m760 -237 l0 -348 -180 -5 c-99 -3 -261 -3 -360 0
l-180 5 0 348 0 349 360 0 360 0 0 -349z m760 -1 l0 -350 -360 0 -360 0 0 350
0 350 360 0 360 0 0 -350z m-9735 -220 c30 -43 79 -86 130 -113 29 -16 27 -16
-82 -17 l-113 0 0 138 1 137 18 -52 c10 -29 30 -70 46 -93z m655 5 l0 -135
-112 0 -113 1 39 20 c78 42 176 169 176 232 0 9 2 17 5 17 3 0 5 -61 5 -135z
m865 -5 c30 -43 79 -86 130 -113 29 -16 27 -16 -82 -17 l-113 0 0 138 1 137
18 -52 c10 -29 30 -70 46 -93z m655 5 l0 -135 -112 0 -113 1 39 20 c78 42 176
169 176 232 0 9 2 17 5 17 3 0 5 -61 5 -135z m2365 -5 c30 -43 79 -86 130
-113 29 -16 27 -16 -82 -17 l-113 0 0 138 1 137 18 -52 c10 -29 30 -70 46 -93z
m655 5 l0 -135 -112 0 -113 1 39 20 c78 42 176 169 176 232 0 9 2 17 5 17 3 0
5 -61 5 -135z m105 -5 c30 -43 79 -86 130 -113 29 -16 27 -16 -82 -17 l-113 0
0 138 1 137 18 -52 c10 -29 30 -70 46 -93z m655 5 l0 -135 -112 0 -113 1 39
20 c78 42 176 169 176 232 0 9 2 17 5 17 3 0 5 -61 5 -135z m105 -5 c30 -43
79 -86 130 -113 29 -16 27 -16 -82 -17 l-113 0 0 138 1 137 18 -52 c10 -29 30
-70 46 -93z m655 5 l0 -135 -112 0 -113 1 39 20 c78 42 176 169 176 232 0 9 2
17 5 17 3 0 5 -61 5 -135z m865 -5 c30 -43 79 -86 130 -113 29 -16 27 -16 -82
-17 l-113 0 0 138 1 137 18 -52 c10 -29 30 -70 46 -93z m-4520 -29 c26 -28 70
-62 98 -76 l51 -25 -117 0 -117 0 0 118 0 117 20 -42 c10 -24 40 -65 65 -92z
m5155 -1 l0 -100 -102 0 -103 1 39 21 c49 25 129 106 146 147 7 17 14 31 16
31 2 0 4 -45 4 -100z m-10580 -500 l0 -360 -360 0 -360 0 0 360 0 360 360 0
360 0 0 -360z m740 0 l0 -360 -350 0 -350 0 0 360 0 360 350 0 350 0 0 -360z
m760 0 l0 -360 -360 0 -360 0 0 360 0 360 360 0 360 0 0 -360z m295 346 c-115
-36 -197 -116 -236 -229 l-18 -52 -1 148 0 147 148 -1 c133 0 143 -2 107 -13z
m464 -133 c0 -134 -2 -144 -13 -108 -36 115 -116 197 -229 236 l-52 18 148 1
147 0 -1 -147z m296 133 c-115 -36 -197 -116 -236 -229 l-18 -52 -1 148 0 147
148 -1 c133 0 143 -2 107 -13z m464 -133 c0 -134 -2 -144 -13 -108 -36 115
-116 197 -229 236 l-52 18 148 1 147 0 -1 -147z m296 133 c-115 -36 -197 -116
-236 -229 l-18 -52 -1 148 0 147 148 -1 c133 0 143 -2 107 -13z m464 -133 c0
-134 -2 -144 -13 -108 -36 115 -116 197 -229 236 l-52 18 148 1 147 0 -1 -147z
m296 133 c-115 -36 -197 -116 -236 -229 l-18 -52 -1 148 0 147 148 -1 c133 0
143 -2 107 -13z m464 -133 c0 -134 -2 -144 -13 -108 -36 115 -116 197 -229
236 l-52 18 148 1 147 0 -1 -147z m296 133 c-115 -36 -197 -116 -236 -229
l-18 -52 -1 148 0 147 148 -1 c133 0 143 -2 107 -13z m464 -133 c0 -134 -2
-144 -13 -108 -36 115 -116 197 -229 236 l-52 18 148 1 147 0 -1 -147z m741
-213 l0 -360 -349 0 -348 0 -5 180 c-3 99 -3 261 0 360 l5 180 348 0 349 0 0
-360z m295 346 c-115 -36 -197 -116 -236 -229 l-18 -52 -1 148 0 147 148 -1
c133 0 143 -2 107 -13z m464 -133 c0 -134 -2 -144 -13 -108 -36 115 -116 197
-229 236 l-52 18 148 1 147 0 -1 -147z m761 -213 l0 -360 -360 0 -360 0 0 360
0 360 360 0 360 0 0 -360z m760 0 l0 -360 -360 0 -360 0 0 360 0 360 360 0
360 0 0 -360z m760 0 l0 -360 -360 0 -360 0 0 360 0 360 360 0 360 0 0 -360z
m295 346 c-115 -36 -197 -116 -236 -229 l-18 -52 -1 148 0 147 148 -1 c133 0
143 -2 107 -13z m464 -133 c0 -134 -2 -144 -13 -108 -36 115 -116 197 -229
236 l-52 18 148 1 147 0 -1 -147z m746 10 c7 -174 7 -272 0 -445 l-7 -138
-349 0 -349 0 0 360 0 360 349 0 349 0 7 -137z m755 -223 l0 -360 -360 0 -360
0 0 360 0 360 360 0 360 0 0 -360z m760 0 l0 -360 -360 0 -360 0 0 360 0 360
360 0 360 0 0 -360z m-10495 -210 c44 -64 110 -111 190 -136 36 -11 26 -13
-107 -13 l-148 -1 0 148 1 147 18 -52 c10 -29 30 -70 46 -93z m655 -5 l0 -145
-147 0 -148 1 52 18 c97 33 171 100 213 192 11 24 20 52 20 62 0 9 2 17 5 17
3 0 5 -65 5 -145z m105 5 c44 -64 110 -111 190 -136 36 -11 26 -13 -107 -13
l-148 -1 0 148 1 147 18 -52 c10 -29 30 -70 46 -93z m655 -5 l0 -145 -147 0
-148 1 52 18 c97 33 171 100 213 192 11 24 20 52 20 62 0 9 2 17 5 17 3 0 5
-65 5 -145z m105 5 c44 -64 110 -111 190 -136 36 -11 26 -13 -107 -13 l-148
-1 0 148 1 147 18 -52 c10 -29 30 -70 46 -93z m655 -5 l0 -145 -147 0 -148 1
52 18 c97 33 171 100 213 192 11 24 20 52 20 62 0 9 2 17 5 17 3 0 5 -65 5
-145z m105 5 c44 -64 110 -111 190 -136 36 -11 26 -13 -107 -13 l-148 -1 0
148 1 147 18 -52 c10 -29 30 -70 46 -93z m655 -5 l0 -145 -147 0 -148 1 52 18
c97 33 171 100 213 192 11 24 20 52 20 62 0 9 2 17 5 17 3 0 5 -65 5 -145z
m105 5 c44 -64 110 -111 190 -136 36 -11 26 -13 -107 -13 l-148 -1 0 148 1
147 18 -52 c10 -29 30 -70 46 -93z m655 -5 l0 -145 -147 0 -148 1 52 18 c97
33 171 100 213 192 11 24 20 52 20 62 0 9 2 17 5 17 3 0 5 -65 5 -145z m845 5
c44 -64 110 -111 190 -136 36 -11 26 -13 -107 -13 l-148 -1 0 148 1 147 18
-52 c10 -29 30 -70 46 -93z m655 -5 l0 -145 -147 0 -148 1 52 18 c97 33 171
100 213 192 11 24 20 52 20 62 0 9 2 17 5 17 3 0 5 -65 5 -145z m2385 5 c44
-64 110 -111 190 -136 36 -11 26 -13 -107 -13 l-148 -1 0 148 1 147 18 -52
c10 -29 30 -70 46 -93z m655 -5 l0 -145 -147 0 -148 1 52 18 c97 33 171 100
213 192 11 24 20 52 20 62 0 9 2 17 5 17 3 0 5 -65 5 -145z m-9840 -545 l0
-360 -360 0 -360 0 0 360 0 360 360 0 360 0 0 -360z m740 0 l0 -360 -350 0
-350 0 0 360 0 360 350 0 350 0 0 -360z m760 0 l0 -360 -360 0 -360 0 0 360 0
360 360 0 360 0 0 -360z m760 0 l0 -360 -360 0 -360 0 0 360 0 360 360 0 360
0 0 -360z m760 0 l0 -360 -360 0 -360 0 0 360 0 360 360 0 360 0 0 -360z m760
0 l0 -360 -360 0 -360 0 0 360 0 360 360 0 360 0 0 -360z m760 0 l0 -360 -360
0 -360 0 0 360 0 360 360 0 360 0 0 -360z m760 0 l0 -360 -360 0 -360 0 0 360
0 360 360 0 360 0 0 -360z m740 0 l0 -360 -349 0 -348 0 -5 180 c-3 99 -3 261
0 360 l5 180 348 0 349 0 0 -360z m760 0 l0 -360 -360 0 -360 0 0 360 0 360
360 0 360 0 0 -360z m760 0 l0 -360 -360 0 -360 0 0 360 0 360 360 0 360 0 0
-360z m295 346 c-115 -36 -197 -116 -236 -229 l-18 -52 -1 148 0 147 148 -1
c133 0 143 -2 107 -13z m464 -133 c0 -134 -2 -144 -13 -108 -36 115 -116 197
-229 236 l-52 18 148 1 147 0 -1 -147z m761 -213 l0 -360 -360 0 -360 0 0 360
0 360 360 0 360 0 0 -360z m760 0 l0 -360 -360 0 -360 0 0 360 0 360 360 0
360 0 0 -360z m740 0 l0 -360 -350 0 -350 0 0 360 0 360 350 0 350 0 0 -360z
m760 0 l0 -360 -360 0 -360 0 0 360 0 360 360 0 360 0 0 -360z m760 0 l0 -360
-360 0 -360 0 0 360 0 360 360 0 360 0 0 -360z m-4435 -210 c44 -64 110 -111
190 -136 36 -11 26 -13 -107 -13 l-148 -1 0 148 1 147 18 -52 c10 -29 30 -70
46 -93z m655 -5 l0 -145 -147 0 -148 1 52 18 c97 33 171 100 213 192 11 24 20
52 20 62 0 9 2 17 5 17 3 0 5 -65 5 -145z m-8320 -545 l0 -360 -360 0 -360 0
0 360 0 360 360 0 360 0 0 -360z m740 0 l0 -360 -350 0 -350 0 0 360 0 360
350 0 350 0 0 -360z m760 0 l0 -360 -360 0 -360 0 0 360 0 360 360 0 360 0 0
-360z m760 0 l0 -360 -360 0 -360 0 0 360 0 360 360 0 360 0 0 -360z m760 0
l0 -360 -360 0 -360 0 0 360 0 360 360 0 360 0 0 -360z m760 0 l0 -360 -360 0
-360 0 0 360 0 360 360 0 360 0 0 -360z m760 0 l0 -360 -360 0 -360 0 0 360 0
360 360 0 360 0 0 -360z m760 0 l0 -360 -360 0 -360 0 0 360 0 360 360 0 360
0 0 -360z m740 0 l0 -360 -350 0 -350 0 0 360 0 360 350 0 350 0 0 -360z m760
0 l0 -360 -360 0 -360 0 0 360 0 360 360 0 360 0 0 -360z m760 0 l0 -360 -360
0 -360 0 0 360 0 360 360 0 360 0 0 -360z m760 0 l0 -360 -360 0 -360 0 0 360
0 360 360 0 360 0 0 -360z m760 0 l0 -360 -360 0 -360 0 0 360 0 360 360 0
360 0 0 -360z m760 0 l0 -360 -360 0 -360 0 0 360 0 360 360 0 360 0 0 -360z
m740 0 l0 -360 -350 0 -350 0 0 360 0 360 350 0 350 0 0 -360z m760 0 l0 -360
-360 0 -360 0 0 360 0 360 360 0 360 0 0 -360z m760 0 l0 -360 -360 0 -360 0
0 360 0 360 360 0 360 0 0 -360z m-12100 -760 l0 -360 -360 0 -360 0 0 360 0
360 360 0 360 0 0 -360z m740 0 l0 -360 -350 0 -350 0 0 360 0 360 350 0 350
0 0 -360z m760 0 l0 -360 -360 0 -360 0 0 360 0 360 360 0 360 0 0 -360z m760
0 l0 -360 -360 0 -360 0 0 360 0 360 360 0 360 0 0 -360z m760 0 l0 -360 -360
0 -360 0 0 360 0 360 360 0 360 0 0 -360z m760 0 l0 -360 -360 0 -360 0 0 360
0 360 360 0 360 0 0 -360z m760 0 l0 -360 -360 0 -360 0 0 360 0 360 360 0
360 0 0 -360z m760 0 l0 -360 -360 0 -360 0 0 360 0 360 360 0 360 0 0 -360z
m740 0 l0 -360 -350 0 -350 0 0 360 0 360 350 0 350 0 0 -360z m760 0 l0 -360
-360 0 -360 0 0 360 0 360 360 0 360 0 0 -360z m760 0 l0 -360 -360 0 -360 0
0 360 0 360 360 0 360 0 0 -360z m760 0 l0 -360 -360 0 -360 0 0 360 0 360
360 0 360 0 0 -360z m760 0 l0 -360 -360 0 -360 0 0 360 0 360 360 0 360 0 0
-360z m760 0 l0 -360 -360 0 -360 0 0 360 0 360 360 0 360 0 0 -360z m740 0
l0 -360 -350 0 -350 0 0 360 0 360 350 0 350 0 0 -360z m760 0 l0 -360 -360 0
-360 0 0 360 0 360 360 0 360 0 0 -360z m760 0 l0 -360 -360 0 -360 0 0 360 0
360 360 0 360 0 0 -360z m-12100 -760 l0 -360 -360 0 -360 0 0 360 0 360 360
0 360 0 0 -360z m740 0 l0 -360 -350 0 -350 0 0 360 0 360 350 0 350 0 0 -360z
m760 0 l0 -360 -360 0 -360 0 0 360 0 360 360 0 360 0 0 -360z m760 0 l0 -360
-360 0 -360 0 0 360 0 360 360 0 360 0 0 -360z m760 0 l0 -360 -360 0 -360 0
0 360 0 360 360 0 360 0 0 -360z m760 0 l0 -360 -360 0 -360 0 0 360 0 360
360 0 360 0 0 -360z m760 0 l0 -360 -360 0 -360 0 0 360 0 360 360 0 360 0 0
-360z m760 0 l0 -360 -360 0 -360 0 0 360 0 360 360 0 360 0 0 -360z m740 0
l0 -360 -350 0 -350 0 0 360 0 360 350 0 350 0 0 -360z m760 0 l0 -360 -360 0
-360 0 0 360 0 360 360 0 360 0 0 -360z m760 0 l0 -360 -360 0 -360 0 0 360 0
360 360 0 360 0 0 -360z m760 0 l0 -360 -360 0 -360 0 0 360 0 360 360 0 360
0 0 -360z m760 0 l0 -360 -360 0 -360 0 0 360 0 360 360 0 360 0 0 -360z m760
0 l0 -360 -360 0 -360 0 0 360 0 360 360 0 360 0 0 -360z m740 0 l0 -360 -350
0 -350 0 0 360 0 360 350 0 350 0 0 -360z m760 0 l0 -360 -360 0 -360 0 0 360
0 360 360 0 360 0 0 -360z m760 0 l0 -360 -360 0 -360 0 0 360 0 360 360 0
360 0 0 -360z m-12100 -760 l0 -360 -360 0 -360 0 0 360 0 360 360 0 360 0 0
-360z m740 0 l0 -360 -350 0 -350 0 0 360 0 360 350 0 350 0 0 -360z m760 0
l0 -360 -360 0 -360 0 0 360 0 360 360 0 360 0 0 -360z m760 0 l0 -360 -360 0
-360 0 0 360 0 360 360 0 360 0 0 -360z m760 0 l0 -360 -360 0 -360 0 0 360 0
360 360 0 360 0 0 -360z m760 0 l0 -360 -360 0 -360 0 0 360 0 360 360 0 360
0 0 -360z m760 0 l0 -360 -360 0 -360 0 0 360 0 360 360 0 360 0 0 -360z m760
0 l0 -360 -360 0 -360 0 0 360 0 360 360 0 360 0 0 -360z m740 0 l0 -360 -350
0 -350 0 0 360 0 360 350 0 350 0 0 -360z m760 0 l0 -360 -360 0 -360 0 0 360
0 360 360 0 360 0 0 -360z m760 0 l0 -360 -360 0 -360 0 0 360 0 360 360 0
360 0 0 -360z m760 0 l0 -360 -360 0 -360 0 0 360 0 360 360 0 360 0 0 -360z
m760 0 l0 -360 -360 0 -360 0 0 360 0 360 360 0 360 0 0 -360z m760 0 l0 -360
-360 0 -360 0 0 360 0 360 360 0 360 0 0 -360z m740 0 l0 -360 -350 0 -350 0
0 360 0 360 350 0 350 0 0 -360z m760 0 l0 -360 -360 0 -360 0 0 360 0 360
360 0 360 0 0 -360z m760 0 l0 -360 -360 0 -360 0 0 360 0 360 360 0 360 0 0
-360z m-12100 -750 l0 -350 -360 0 -360 0 0 350 0 350 360 0 360 0 0 -350z
m740 0 l0 -350 -350 0 -350 0 0 350 0 350 350 0 350 0 0 -350z m760 0 l0 -350
-360 0 -360 0 0 350 0 350 360 0 360 0 0 -350z m760 0 l0 -350 -360 0 -360 0
0 350 0 350 360 0 360 0 0 -350z m760 0 l0 -350 -360 0 -360 0 0 350 0 350
360 0 360 0 0 -350z m760 0 l0 -350 -360 0 -360 0 0 350 0 350 360 0 360 0 0
-350z m760 0 l0 -350 -360 0 -360 0 0 350 0 350 360 0 360 0 0 -350z m760 0
l0 -350 -360 0 -360 0 0 350 0 350 360 0 360 0 0 -350z m740 0 l0 -350 -350 0
-350 0 0 350 0 350 350 0 350 0 0 -350z m760 0 l0 -350 -360 0 -360 0 0 350 0
350 360 0 360 0 0 -350z m760 0 l0 -350 -360 0 -360 0 0 350 0 350 360 0 360
0 0 -350z m760 0 l0 -350 -360 0 -360 0 0 350 0 350 360 0 360 0 0 -350z m760
0 l0 -350 -360 0 -360 0 0 350 0 350 360 0 360 0 0 -350z m760 0 l0 -350 -360
0 -360 0 0 350 0 350 360 0 360 0 0 -350z m740 0 l0 -350 -350 0 -350 0 0 350
0 350 350 0 350 0 0 -350z m760 0 l0 -350 -360 0 -360 0 0 350 0 350 360 0
360 0 0 -350z m760 0 l0 -350 -360 0 -360 0 0 350 0 350 360 0 360 0 0 -350z
m-12100 -750 l0 -360 -360 0 -360 0 0 360 0 360 360 0 360 0 0 -360z m740 0
l0 -360 -350 0 -350 0 0 360 0 360 350 0 350 0 0 -360z m760 0 l0 -360 -360 0
-360 0 0 360 0 360 360 0 360 0 0 -360z m760 0 l0 -360 -360 0 -360 0 0 360 0
360 360 0 360 0 0 -360z m760 0 l0 -360 -360 0 -360 0 0 360 0 360 360 0 360
0 0 -360z m760 0 l0 -360 -360 0 -360 0 0 360 0 360 360 0 360 0 0 -360z m760
0 l0 -360 -360 0 -360 0 0 360 0 360 360 0 360 0 0 -360z m760 0 l0 -360 -360
0 -360 0 0 360 0 360 360 0 360 0 0 -360z m740 0 l0 -360 -350 0 -350 0 0 360
0 360 350 0 350 0 0 -360z m760 0 l0 -360 -360 0 -360 0 0 360 0 360 360 0
360 0 0 -360z m760 0 l0 -360 -360 0 -360 0 0 360 0 360 360 0 360 0 0 -360z
m760 0 l0 -360 -360 0 -360 0 0 360 0 360 360 0 360 0 0 -360z m760 0 l0 -360
-360 0 -360 0 0 360 0 360 360 0 360 0 0 -360z m760 0 l0 -360 -360 0 -360 0
0 360 0 360 360 0 360 0 0 -360z m740 0 l0 -360 -350 0 -350 0 0 360 0 360
350 0 350 0 0 -360z m760 0 l0 -360 -360 0 -360 0 0 360 0 360 360 0 360 0 0
-360z m760 0 l0 -360 -360 0 -360 0 0 360 0 360 360 0 360 0 0 -360z"/>
<path d="M12333 8236 c-89 -29 -176 -107 -216 -194 -31 -67 -31 -217 0 -284
30 -66 105 -143 172 -175 49 -25 68 -28 151 -28 83 0 102 3 151 28 67 32 142
109 172 175 31 67 31 217 0 284 -30 66 -105 143 -171 175 -66 32 -190 42 -259
19z"/>
</g>
</svg>
